<svg width="90" height="90" viewBox="0 0 90 90" fill="none" xmlns="http://www.w3.org/2000/svg">
<path id="Union" fill-rule="evenodd" clip-rule="evenodd" d="M75.8556 77.7558C84.5638 69.5498 90 57.9097 90 45C90 20.1472 69.8528 0 45 0C20.1472 0 0 20.1472 0 45C0 57.9097 5.43624 69.5498 14.1444 77.7558C22.2005 85.3474 33.0569 90 45 90C56.9431 90 67.7995 85.3474 75.8556 77.7558ZM17.9775 71.826C24.3213 63.9129 34.0689 58.8462 45 58.8462C55.9311 58.8462 65.6787 63.9129 72.0225 71.826C65.1243 78.7744 55.5646 83.0769 45 83.0769C34.4354 83.0769 24.8757 78.7744 17.9775 71.826ZM62.3077 31.1538C62.3077 40.7126 54.5588 48.4615 45 48.4615C35.4412 48.4615 27.6923 40.7126 27.6923 31.1538C27.6923 21.5951 35.4412 13.8462 45 13.8462C54.5588 13.8462 62.3077 21.5951 62.3077 31.1538Z" fill="#645445"/>
</svg>
