<svg width="39" height="34" viewBox="0 0 39 34" fill="none" xmlns="http://www.w3.org/2000/svg">
<path d="M18.5851 33.7912L18.573 33.7839L18.5268 33.7596C17.5685 33.2382 16.6274 32.6859 15.705 32.1034C13.5056 30.7196 11.41 29.1775 9.43463 27.4893C4.96624 23.6353 0 17.8531 0 10.9271C0.000214479 8.66731 0.700978 6.46316 2.0058 4.61814C3.31062 2.77312 5.15533 1.37798 7.28592 0.624819C9.41651 -0.128344 11.7282 -0.202485 13.9027 0.412604C16.0771 1.02769 18.0074 2.30176 19.4278 4.05938C20.8482 2.30176 22.7785 1.02769 24.953 0.412604C27.1274 -0.202485 29.4391 -0.128344 31.5697 0.624819C33.7003 1.37798 35.545 2.77312 36.8498 4.61814C38.1546 6.46316 38.8554 8.66731 38.8556 10.9271C38.8556 17.8531 33.8918 23.6353 29.421 27.4893C26.6145 29.8872 23.5676 31.9885 20.3288 33.7596L20.2826 33.7839L20.2705 33.7912H20.2656C20.0076 33.9279 19.7201 33.9996 19.4281 34C19.1361 34.0004 18.8484 33.9296 18.59 33.7936L18.5851 33.7912Z" fill="#7D6F62"/>
</svg>
