<svg width="34" height="34" viewBox="0 0 34 34" fill="none" xmlns="http://www.w3.org/2000/svg"><path fill-rule="evenodd" clip-rule="evenodd" d="M15.497.622c.83-.83 2.176-.83 3.006 0l14.875 14.875a2.125 2.125 0 0 1-1.503 3.628H29.75v12.75A2.125 2.125 0 0 1 27.625 34h-4.25a2.125 2.125 0 0 1-2.125-2.125V25.5a2.125 2.125 0 0 0-2.125-2.125h-4.25A2.125 2.125 0 0 0 12.75 25.5v6.375A2.125 2.125 0 0 1 10.625 34h-4.25a2.125 2.125 0 0 1-2.125-2.125v-12.75H2.125a2.125 2.125 0 0 1-1.503-3.628L15.497.622Z" fill="#7D6F62"/></svg>