<svg width="20" height="18" viewBox="0 0 20 18" fill="none" xmlns="http://www.w3.org/2000/svg">
<path d="M9.27981 16.5649L9.29158 16.572L9.31367 16.583C9.52597 16.6931 9.76169 16.7503 10.0009 16.75C10.1706 16.7498 10.3385 16.7205 10.4974 16.664H10.5544L10.7196 16.5649L10.72 16.5647L10.72 16.5648L10.7305 16.5591C12.1095 15.805 13.4068 14.9103 14.6017 13.8893L14.6042 13.8872C16.4734 12.2759 18.7494 9.70156 18.7494 6.4994V6.49933C18.7493 5.41373 18.4126 4.35487 17.7858 3.46853C17.159 2.58219 16.2728 1.91198 15.2493 1.55016C14.2257 1.18834 13.1152 1.15273 12.0706 1.44821C11.2992 1.66642 10.5918 2.05727 9.99969 2.58681C9.40762 2.05727 8.70018 1.66642 7.92877 1.44821C6.88416 1.15273 5.77364 1.18834 4.75012 1.55016C3.72659 1.91198 2.84041 2.58219 2.21358 3.46853C1.58675 4.35487 1.2501 5.41373 1.25 6.49933V6.4994C1.25 9.70163 3.5271 12.276 5.395 13.8871L5.39759 13.8893C6.23845 14.6079 7.1305 15.2643 8.06667 15.8534C8.46012 16.1019 8.86153 16.3374 9.27026 16.5598L9.27023 16.5599L9.27939 16.5647L9.27981 16.5649Z" stroke="#645445" stroke-width="1.5"/>
</svg>
