<svg width="30" height="30" viewBox="0 0 30 30" fill="none" xmlns="http://www.w3.org/2000/svg">
<path fill-rule="evenodd" clip-rule="evenodd" d="M25.2852 25.9186C28.1879 23.1833 30 19.3032 30 15C30 6.71573 23.2843 0 15 0C6.71573 0 0 6.71573 0 15C0 19.3032 1.81208 23.1833 4.71481 25.9186C7.40018 28.4491 11.019 30 15 30C18.981 30 22.5998 28.4491 25.2852 25.9186ZM5.9925 23.942C8.1071 21.3043 11.3563 19.6154 15 19.6154C18.6437 19.6154 21.8929 21.3043 24.0075 23.942C21.7081 26.2581 18.5215 27.6923 15 27.6923C11.4785 27.6923 8.29189 26.2581 5.9925 23.942ZM20.7692 10.3846C20.7692 13.5709 18.1863 16.1538 15 16.1538C11.8137 16.1538 9.23077 13.5709 9.23077 10.3846C9.23077 7.19836 11.8137 4.61538 15 4.61538C18.1863 4.61538 20.7692 7.19836 20.7692 10.3846Z" fill="#645445"/>
</svg>
