<svg width="40" height="34" viewBox="0 0 40 34" fill="none" xmlns="http://www.w3.org/2000/svg"><path d="M2.126 34c-.79 0-1.343-.663-1.343-1.407 0-.529.278-1.096.955-1.494 3.436-2.012 7.414-8.98 7.414-13.277-5.796.196-8.314-5.486-8.314-9.048C.838 4.511 4.178 0 9.118 0c6.227 0 9.281 5.412 9.281 11.277C18.4 23.987 5.266 34 2.126 34Zm20.818 0c-.788 0-1.343-.663-1.343-1.407 0-.529.278-1.096.955-1.494 3.436-2.012 7.414-8.98 7.414-13.277-5.794.196-8.313-5.486-8.313-9.048C21.657 4.511 24.998 0 29.934 0c6.229 0 9.282 5.412 9.282 11.277C39.217 23.987 26.087 34 22.944 34Z" fill="#A2968C"/></svg>