<svg width="22" height="22" viewBox="0 0 22 22" fill="none" xmlns="http://www.w3.org/2000/svg">
<g id="heroicons-mini/arrow-path-rounded-square">
<path id="Vector (Stroke)" fill-rule="evenodd" clip-rule="evenodd" d="M11 4.94999C12.3365 4.94999 13.6588 5.01031 14.9642 5.12835C15.3174 5.16028 15.5983 5.43323 15.6404 5.78527C15.7769 6.92671 15.8691 8.08189 15.9154 9.24905L14.0584 7.39169C13.7363 7.06947 13.2139 7.06941 12.8917 7.39156C12.5695 7.71371 12.5694 8.23607 12.8916 8.55829L16.1907 11.8582C16.5129 12.1804 17.0352 12.1805 17.3575 11.8583L20.6583 8.55843C20.9805 8.2363 20.9806 7.71394 20.6584 7.39171C20.3363 7.06948 19.814 7.0694 19.4917 7.39154L17.5691 9.31366C17.5229 8.0586 17.4255 6.81648 17.2787 5.58935C17.1441 4.46351 16.2419 3.58715 15.1128 3.48505C13.758 3.36255 12.3862 3.29999 11 3.29999C9.6138 3.29999 8.24198 3.36255 6.88727 3.48505C5.75812 3.58715 4.85594 4.46351 4.72131 5.58935C4.65115 6.17609 4.59225 6.76627 4.54484 7.35966C4.50855 7.81385 4.84733 8.21146 5.30152 8.24774C5.7557 8.28403 6.15331 7.94526 6.1896 7.49107C6.23528 6.91925 6.29204 6.35057 6.35964 5.78526C6.40174 5.43323 6.68266 5.16028 7.03586 5.12835C8.34124 5.01031 9.66347 4.94999 11 4.94999ZM5.80925 10.142C5.48711 9.8198 4.9648 9.81974 4.64258 10.1418L1.34174 13.4415C1.01951 13.7636 1.01941 14.286 1.34154 14.6082C1.66367 14.9305 2.18603 14.9306 2.50827 14.6085L4.43097 12.6864C4.47712 13.9415 4.57457 15.1835 4.72131 16.4106C4.85594 17.5365 5.75812 18.4128 6.88727 18.5149C8.24198 18.6374 9.6138 18.7 11 18.7C12.3862 18.7 13.758 18.6374 15.1127 18.5149C16.2419 18.4128 17.1441 17.5365 17.2787 16.4106C17.3489 15.8234 17.4079 15.2328 17.4553 14.6389C17.4916 14.1847 17.1528 13.7871 16.6986 13.7509C16.2444 13.7146 15.8468 14.0534 15.8105 14.5076C15.7648 15.0798 15.708 15.649 15.6404 16.2147C15.5983 16.5667 15.3174 16.8397 14.9642 16.8716C13.6588 16.9897 12.3365 17.05 11 17.05C9.66347 17.05 8.34124 16.9897 7.03586 16.8716C6.68266 16.8397 6.40174 16.5667 6.35964 16.2147C6.22314 15.0733 6.13088 13.9182 6.08464 12.7511L7.9416 14.6083C8.26376 14.9305 8.78612 14.9306 9.10833 14.6084C9.43053 14.2862 9.43057 13.7639 9.10842 13.4417L5.80925 10.142Z" fill="#645445"/>
</g>
</svg>
