<svg width="18" height="14" viewBox="0 0 18 14" fill="none" xmlns="http://www.w3.org/2000/svg">
    <g clip-path="url(#a)">
        <path fill-rule="evenodd" clip-rule="evenodd" d="M9 1.5q1.823 0 3.604.162a.68.68 0 0 1 .615.597q.187 1.557.25 3.15l-1.689-1.69a.75.75 0 0 0-1.06 1.061l2.999 3a.75.75 0 0 0 1.06 0l3.001-3a.75.75 0 1 0-1.06-1.06l-1.748 1.747a41 41 0 0 0-.264-3.386 2.18 2.18 0 0 0-1.97-1.913 41.5 41.5 0 0 0-7.477 0 2.18 2.18 0 0 0-1.969 1.913q-.096.8-.16 1.61a.75.75 0 0 0 1.495.12q.062-.78.154-1.552a.68.68 0 0 1 .615-.597A40 40 0 0 1 9 1.5M4.281 6.22a.75.75 0 0 0-1.06 0l-3.001 3a.75.75 0 0 0 1.06 1.06l1.748-1.747q.063 1.712.264 3.386a2.18 2.18 0 0 0 1.97 1.913 41.5 41.5 0 0 0 7.477 0 2.18 2.18 0 0 0 1.969-1.913q.096-.801.16-1.61a.75.75 0 1 0-1.495-.12q-.062.78-.154 1.552a.68.68 0 0 1-.615.597 40 40 0 0 1-7.208 0 .68.68 0 0 1-.615-.597 40 40 0 0 1-.25-3.15l1.689 1.69A.75.75 0 1 0 7.28 9.22z" fill="#645445"/>
    </g>
    <defs>
        <clipPath id="a">
            <path fill="#fff" d="M0 0h18v14H0z"/>
        </clipPath>
    </defs>
</svg>
