<svg width="16" height="14" viewBox="0 0 16 14" fill="none" xmlns="http://www.w3.org/2000/svg">
<path id="Vector" d="M7.6527 13.914L7.6477 13.911L7.6287 13.901C7.23411 13.6863 6.84658 13.4589 6.46675 13.2191C5.56115 12.6492 4.69823 12.0143 3.88485 11.3191C2.04492 9.73219 0 7.35129 0 4.4994C8.83149e-05 3.56889 0.288638 2.6613 0.825918 1.90159C1.3632 1.14187 2.12278 0.567404 3.00008 0.257278C3.87738 -0.0528474 4.82925 -0.0833762 5.72462 0.169896C6.61999 0.423168 7.41483 0.947784 7.99969 1.67151C8.58454 0.947784 9.37938 0.423168 10.2748 0.169896C11.1701 -0.0833762 12.122 -0.0528474 12.9993 0.257278C13.8766 0.567404 14.6362 1.14187 15.1735 1.90159C15.7107 2.6613 15.9993 3.56889 15.9994 4.4994C15.9994 7.35129 13.9555 9.73219 12.1145 11.3191C10.9589 12.3065 9.70429 13.1717 8.37067 13.901L8.35167 13.911L8.34667 13.914H8.34467C8.23843 13.9703 8.12005 13.9998 7.99981 14C7.87957 14.0002 7.76111 13.971 7.6547 13.915L7.6527 13.914Z" fill="#645445"/>
</svg>
